<?xml version='1.0' encoding='UTF-8' standalone='no'?>
<!-- Created with Fritzing (http://www.fritzing.org/) -->
<svg xmlns="http://www.w3.org/2000/svg" xmlns:svg="http://www.w3.org/2000/svg" viewBox="0 0 136.41 151.582" baseProfile="tiny" x="0in" y="0in" width="1.89458in" height="2.1053in" version="1.2" >
 <g partID="57360">
  <g  id="board">
   <rect fill-opacity="0.5" stroke="black" x="0.288" fill="none" width="135.834" y="0.288" height="151.006" stroke-width="0.5"  id="boardoutline"/>
  </g>
 </g>
 <g partID="854115810">
  <g transform="translate(21.2147,8.19556)">
   <g  id="copper0">
    <circle cx="3.6" r="1.908" cy="10.8" stroke="black" fill="none" stroke-width="1.224"  id="connector16pad"/>
    <rect stroke="black" x="1.692" y="8.892" fill="none" width="3.814" height="3.816" stroke-width="1.224" />
    <circle cx="3.6" r="1.908" cy="18" stroke="black" fill="none" stroke-width="1.224"  id="connector17pad"/>
    <circle cx="3.6" r="1.908" cy="25.2" stroke="black" fill="none" stroke-width="1.224"  id="connector18pad"/>
    <circle cx="3.6" r="1.908" cy="32.4" stroke="black" fill="none" stroke-width="1.224"  id="connector19pad"/>
    <circle cx="3.6" r="1.908" cy="39.6" stroke="black" fill="none" stroke-width="1.224"  id="connector20pad"/>
    <circle cx="3.6" r="1.908" cy="46.8" stroke="black" fill="none" stroke-width="1.224"  id="connector21pad"/>
    <circle cx="3.6" r="1.908" cy="54" stroke="black" fill="none" stroke-width="1.224"  id="connector22pad"/>
    <circle cx="3.6" r="1.908" cy="61.2" stroke="black" fill="none" stroke-width="1.224"  id="connector23pad"/>
    <circle cx="3.6" r="1.908" cy="68.4" stroke="black" fill="none" stroke-width="1.224"  id="connector24pad"/>
    <circle cx="3.6" r="1.908" cy="75.6" stroke="black" fill="none" stroke-width="1.224"  id="connector25pad"/>
    <circle cx="3.6" r="1.908" cy="82.8" stroke="black" fill="none" stroke-width="1.224"  id="connector26pad"/>
    <circle cx="3.6" r="1.908" cy="90" stroke="black" fill="none" stroke-width="1.224"  id="connector27pad"/>
    <circle cx="3.6" r="1.908" cy="97.2" stroke="black" fill="none" stroke-width="1.224"  id="connector28pad"/>
    <circle cx="3.6" r="1.908" cy="104.4" stroke="black" fill="none" stroke-width="1.224"  id="connector29pad"/>
    <circle cx="3.6" r="1.908" cy="111.6" stroke="black" fill="none" stroke-width="1.224"  id="connector30pad"/>
    <circle cx="46.8" r="1.908" cy="10.8" stroke="black" fill="none" stroke-width="1.224"  id="connector31pad"/>
    <circle cx="46.8" r="1.908" cy="18" stroke="black" fill="none" stroke-width="1.224"  id="connector32pad"/>
    <circle cx="46.8" r="1.908" cy="25.2" stroke="black" fill="none" stroke-width="1.224"  id="connector33pad"/>
    <circle cx="46.8" r="1.908" cy="32.4" stroke="black" fill="none" stroke-width="1.224"  id="connector34pad"/>
    <circle cx="46.8" r="1.908" cy="39.6" stroke="black" fill="none" stroke-width="1.224"  id="connector35pad"/>
    <circle cx="46.8" r="1.908" cy="46.8" stroke="black" fill="none" stroke-width="1.224"  id="connector36pad"/>
    <circle cx="46.8" r="1.908" cy="54" stroke="black" fill="none" stroke-width="1.224"  id="connector37pad"/>
    <circle cx="46.8" r="1.908" cy="61.2" stroke="black" fill="none" stroke-width="1.224"  id="connector38pad"/>
    <circle cx="46.8" r="1.908" cy="68.4" stroke="black" fill="none" stroke-width="1.224"  id="connector39pad"/>
    <circle cx="46.8" r="1.908" cy="75.6" stroke="black" fill="none" stroke-width="1.224"  id="connector40pad"/>
    <circle cx="46.8" r="1.908" cy="82.8" stroke="black" fill="none" stroke-width="1.224"  id="connector41pad"/>
    <circle cx="46.8" r="1.908" cy="90" stroke="black" fill="none" stroke-width="1.224"  id="connector42pad"/>
    <circle cx="46.8" r="1.908" cy="97.2" stroke="black" fill="none" stroke-width="1.224"  id="connector43pad"/>
    <circle cx="46.8" r="1.908" cy="104.4" stroke="black" fill="none" stroke-width="1.224"  id="connector44pad"/>
    <circle cx="46.8" r="1.908" cy="111.6" stroke="black" fill="none" stroke-width="1.224"  id="connector45pad"/>
   </g>
  </g>
 </g>
 <g partID="854119550">
  <g transform="translate(80.2547,31.2356)">
   <g transform="matrix(-1,0,0,-1,0,0)">
    <g  id="copper0">
     <rect stroke="black" x="2.952" fill="none" width="4.176" y="2.952" height="4.176" stroke-width="1.44"  id="square"/>
     <circle cx="5.04" r="2.088" cy="5.04" stroke="black" fill="none" stroke-width="1.44"  id="connector0pin"/>
     <circle cx="5.04" r="2.088" cy="12.24" stroke="black" fill="none" stroke-width="1.44"  id="connector1pin"/>
    </g>
   </g>
  </g>
 </g>
 <g partID="854129980">
  <g transform="translate(28.4147,126.996)">
   <g transform="matrix(0,-1,1,0,0,0)">
    <g  id="copper0">
     <path d="m9,3.6a1.8,1.8,0,0,1,-3.6,0,1.8,1.8,0,1,1,3.6,0z" style="stroke-linecap:round;stroke-linejoin:round;stroke-miterlimit:4;stroke-dasharray:none;stroke-dashoffset:0;display:inline" stroke="black" fill="none" stroke-width="1.44" stroke-opacity="1"  id="connector1pad"/>
     <path d="m16.2,3.6a1.8,1.8,0,0,1,-3.6,0,1.8,1.8,0,1,1,3.6,0z" style="stroke-linecap:round;stroke-linejoin:round;stroke-miterlimit:4;stroke-dasharray:none;stroke-dashoffset:0;display:inline" stroke="black" fill="none" stroke-width="1.44" stroke-opacity="1"  id="connector2pad"/>
     <path d="m23.4,3.6a1.8,1.8,0,0,1,-3.6,0,1.8,1.8,0,1,1,3.6,0z" style="stroke-linecap:round;stroke-linejoin:round;stroke-miterlimit:4;stroke-dasharray:none;stroke-dashoffset:0;display:inline" stroke="black" fill="none" stroke-width="1.44" stroke-opacity="1"  id="connector3pad"/>
     <path d="m30.6,3.6a1.8,1.8,0,0,1,-3.6,0,1.8,1.8,0,1,1,3.6,0z" style="stroke-linecap:round;stroke-linejoin:round;stroke-miterlimit:4;stroke-dasharray:none;stroke-dashoffset:0;display:inline" stroke="black" fill="none" stroke-width="1.44" stroke-opacity="1"  id="connector4pad"/>
     <path d="m37.8,3.6a1.8,1.8,0,0,1,-3.6,0,1.8,1.8,0,1,1,3.6,0z" style="stroke-linecap:round;stroke-linejoin:round;stroke-miterlimit:4;stroke-dasharray:none;stroke-dashoffset:0;display:inline" stroke="black" fill="none" stroke-width="1.44" stroke-opacity="1"  id="connector5pad"/>
     <path d="m45,3.6a1.8,1.8,0,0,1,-3.6,0,1.8,1.8,0,1,1,3.6,0z" style="stroke-linecap:round;stroke-linejoin:round;stroke-miterlimit:4;stroke-dasharray:none;stroke-dashoffset:0;display:inline" stroke="black" fill="none" stroke-width="1.44" stroke-opacity="1"  id="connector6pad"/>
     <path d="m52.2,3.6a1.8,1.8,0,0,1,-3.6,0,1.8,1.8,0,1,1,3.6,0z" style="stroke-linecap:round;stroke-linejoin:round;stroke-miterlimit:4;stroke-dasharray:none;stroke-dashoffset:0;display:inline" stroke="black" fill="none" stroke-width="1.44" stroke-opacity="1"  id="connector7pad"/>
    </g>
   </g>
  </g>
 </g>
 <g partID="854135530">
  <g transform="translate(128.711,45.0956)">
   <g transform="matrix(0,1,-1,0,0,0)">
    <g  id="copper0">
     <g  id="copper1">
      <!-- <rect width="55" x="10" y="15.5" fill="none" height="55" stroke="rgb(255, 191, 0)" stroke-width="20" />  -->
      <circle cx="2.7" r="1.98" cy="3.096" stroke="black" fill="none" stroke-width="1.44"  id="connector0pin"/>
      <circle cx="31.5" r="1.98" cy="3.096" stroke="black" fill="none" stroke-width="1.44"  id="connector1pin"/>
     </g>
    </g>
   </g>
  </g>
 </g>
 <g partID="854135730">
  <g transform="translate(72.1187,122.496)">
   <g transform="matrix(0,-1,1,0,0,0)">
    <g  id="copper0">
     <g  id="copper1">
      <!-- <rect width="55" x="10" y="15.5" fill="none" height="55" stroke="rgb(255, 191, 0)" stroke-width="20" />  -->
      <circle cx="2.7" r="1.98" cy="3.096" stroke="black" fill="none" stroke-width="1.44"  id="connector0pin"/>
      <circle cx="31.5" r="1.98" cy="3.096" stroke="black" fill="none" stroke-width="1.44"  id="connector1pin"/>
     </g>
    </g>
   </g>
  </g>
 </g>
 <g partID="854135670">
  <g transform="translate(135.911,45.0956)">
   <g transform="matrix(0,1,-1,0,0,0)">
    <g  id="copper0">
     <g  id="copper1">
      <!-- <rect width="55" x="10" y="15.5" fill="none" height="55" stroke="rgb(255, 191, 0)" stroke-width="20" />  -->
      <circle cx="2.7" r="1.98" cy="3.096" stroke="black" fill="none" stroke-width="1.44"  id="connector0pin"/>
      <circle cx="31.5" r="1.98" cy="3.096" stroke="black" fill="none" stroke-width="1.44"  id="connector1pin"/>
     </g>
    </g>
   </g>
  </g>
 </g>
 <g partID="854135380">
  <g transform="translate(42.3107,66.6956)">
   <g transform="matrix(0,1,-1,0,0,0)">
    <g  id="copper0">
     <g  id="copper1">
      <!-- <rect width="55" x="10" y="15.5" fill="none" height="55" stroke="rgb(255, 191, 0)" stroke-width="20" />  -->
      <circle cx="2.7" r="1.98" cy="3.096" stroke="black" fill="none" stroke-width="1.44"  id="connector0pin"/>
      <circle cx="31.5" r="1.98" cy="3.096" stroke="black" fill="none" stroke-width="1.44"  id="connector1pin"/>
     </g>
    </g>
   </g>
  </g>
 </g>
 <g partID="854136070">
  <g transform="translate(122.336,15.8676)">
   <g transform="matrix(0,1,-1,0,0,0)">
    <g  id="copper0">
     <circle cx="31.928" r="1.82693" cy="32.7217" stroke="black" fill="none" connectorname="1" stroke-width="1.38614"  id="connector0pad"/>
     <circle cx="39.128" r="1.82693" cy="32.7217" stroke="black" fill="none" connectorname="2" stroke-width="1.38614"  id="connector1pad"/>
     <circle cx="46.328" r="1.82693" cy="32.7217" stroke="black" fill="none" connectorname="3" stroke-width="1.38614"  id="connector2pad"/>
     <circle cx="53.528" r="1.82693" cy="32.7217" stroke="black" fill="none" connectorname="4" stroke-width="1.38614"  id="connector3pad"/>
     <circle cx="60.728" r="1.82693" cy="32.7217" stroke="black" fill="none" connectorname="5" stroke-width="1.38614"  id="connector4pad"/>
     <circle cx="67.928" r="1.82693" cy="32.7217" stroke="black" fill="none" connectorname="6" stroke-width="1.38614"  id="connector5pad"/>
     <circle cx="82.328" r="1.82693" cy="32.7217" stroke="black" fill="none" connectorname="8" stroke-width="1.38614"  id="connector7pad"/>
     <circle cx="75.128" r="1.82693" cy="32.7217" stroke="black" fill="none" connectorname="7" stroke-width="1.38614"  id="connector6pad"/>
     <circle cx="82.328" r="1.82693" cy="3.92173" stroke="black" fill="none" connectorname="9" stroke-width="1.38614"  id="connector8pad"/>
     <circle cx="46.328" r="1.82693" cy="3.92173" stroke="black" fill="none" connectorname="14" stroke-width="1.38614"  id="connector13pad"/>
     <circle cx="53.528" r="1.82693" cy="3.92173" stroke="black" fill="none" connectorname="13" stroke-width="1.38614"  id="connector12pad"/>
     <circle cx="60.728" r="1.82693" cy="3.92173" stroke="black" fill="none" connectorname="12" stroke-width="1.38614"  id="connector11pad"/>
     <circle cx="75.128" r="1.82693" cy="3.92173" stroke="black" fill="none" connectorname="10" stroke-width="1.38614"  id="connector9pad"/>
     <circle cx="67.928" r="1.82693" cy="3.92173" stroke="black" fill="none" connectorname="11" stroke-width="1.38614"  id="connector10pad"/>
     <circle cx="39.128" r="1.82693" cy="3.92173" stroke="black" fill="none" connectorname="15" stroke-width="1.38614"  id="connector14pad"/>
     <circle cx="31.928" r="1.82693" cy="3.92173" stroke="black" fill="none" connectorname="16" stroke-width="1.38614"  id="connector15pad"/>
    </g>
   </g>
  </g>
 </g>
 <g partID="854204040">
  <g transform="translate(65.8547,21.1556)">
   <g transform="matrix(0,1,-1,0,0,0)">
    <g flipped="1" id="copper0">
     <g transform="matrix(-1, 0, 0, 1, 10.08, 0)">
      <g>
       <g>
        <g>
         <g id="copper0">
          <rect stroke="black" x="2.952" fill="none" width="4.176" y="2.952" height="4.176" stroke-width="1.44" id="square"/>
          <circle cx="5.04" r="2.088" cy="5.04" stroke="black" fill="none" stroke-width="1.44" id="connector0pin"/>
          <circle cx="5.04" r="2.088" cy="12.24" stroke="black" fill="none" stroke-width="1.44" id="connector1pin"/>
          <circle cx="5.04" r="2.088" cy="19.44" stroke="black" fill="none" stroke-width="1.44" id="connector2pin"/>
         </g>
        </g>
        <g>
         <rect stroke="black" x="2.952" fill="none" width="4.176" y="2.952" height="4.176" stroke-width="1.44" id="square"/>
         <circle cx="5.04" r="2.088" cy="5.04" stroke="black" fill="none" stroke-width="1.44" id="connector0pin"/>
         <circle cx="5.04" r="2.088" cy="12.24" stroke="black" fill="none" stroke-width="1.44" id="connector1pin"/>
         <circle cx="5.04" r="2.088" cy="19.44" stroke="black" fill="none" stroke-width="1.44" id="connector2pin"/>
        </g>
       </g>
      </g>
     </g>
    </g>
   </g>
  </g>
 </g>
 <g partID="854200850">
  <line y1="76.5956" y2="76.5956" x1="123.555" x2="120.349" stroke="black" stroke-linecap="round" stroke-width="1.728"/>
 </g>
 <g partID="854202750">
  <line y1="11.9614" y2="47.7081" x1="31.9041" x2="31.9041" stroke="black" stroke-linecap="round" stroke-width="1.728"/>
 </g>
 <g partID="854202780">
  <line y1="47.7081" y2="47.7697" x1="31.9041" x2="26.9105" stroke="black" stroke-linecap="round" stroke-width="1.728"/>
 </g>
 <g partID="854202290">
  <line y1="11.9614" y2="11.9614" x1="125.509" x2="31.9041" stroke="black" stroke-linecap="round" stroke-width="1.728"/>
 </g>
 <g partID="854202300">
  <line y1="45.7356" y2="11.9614" x1="125.609" x2="125.509" stroke="black" stroke-linecap="round" stroke-width="1.728"/>
 </g>
 <g partID="854197820">
  <line y1="83.7956" y2="83.7957" x1="30.1347" x2="26.9107" stroke="black" stroke-linecap="round" stroke-width="1.728"/>
 </g>
 <g partID="854197730">
  <line y1="92.4522" y2="96.7136" x1="73.7581" x2="69.4968" stroke="black" stroke-linecap="round" stroke-width="1.728"/>
 </g>
 <g partID="854197850">
  <line y1="90.9957" y2="90.9956" x1="26.9107" x2="30.1347" stroke="black" stroke-linecap="round" stroke-width="1.728"/>
 </g>
 <g partID="854197790">
  <line y1="76.5957" y2="76.5956" x1="26.9107" x2="30.1347" stroke="black" stroke-linecap="round" stroke-width="1.728"/>
 </g>
 <g partID="854197880">
  <line y1="98.1956" y2="98.1957" x1="30.1347" x2="26.9107" stroke="black" stroke-linecap="round" stroke-width="1.728"/>
 </g>
 <g partID="854200910">
  <line y1="78.6555" y2="83.8232" x1="132.833" x2="132.879" stroke="black" stroke-linecap="round" stroke-width="1.728"/>
 </g>
 <g partID="854200900">
  <line y1="83.8232" y2="83.7993" x1="132.879" x2="120.349" stroke="black" stroke-linecap="round" stroke-width="1.728"/>
 </g>
 <g partID="854195110">
  <line y1="62.0804" y2="62.18" x1="104.134" x2="116.481" stroke="black" stroke-linecap="round" stroke-width="1.728"/>
 </g>
 <g partID="854193630">
  <line y1="134.311" y2="62.0804" x1="104.134" x2="104.134" stroke="black" stroke-linecap="round" stroke-width="1.728"/>
 </g>
 <g partID="854193560">
  <line y1="134.13" y2="134.311" x1="17.6123" x2="104.134" stroke="black" stroke-linecap="round" stroke-width="1.728"/>
 </g>
 <g partID="854193600">
  <line y1="62.2613" y2="134.13" x1="17.6123" x2="17.6123" stroke="black" stroke-linecap="round" stroke-width="1.728"/>
 </g>
 <g partID="854193570">
  <line y1="62.2148" y2="62.2613" x1="22.7188" x2="17.6123" stroke="black" stroke-linecap="round" stroke-width="1.728"/>
 </g>
 <g partID="854197910">
  <line y1="105.396" y2="105.396" x1="26.9107" x2="30.1347" stroke="black" stroke-linecap="round" stroke-width="1.728"/>
 </g>
 <g partID="854198730">
  <line y1="89.5344" y2="83.8232" x1="69.5173" x2="75.3898" stroke="black" stroke-linecap="round" stroke-width="1.728"/>
 </g>
 <g partID="854198720">
  <line y1="83.8232" y2="83.7994" x1="75.3898" x2="87.6808" stroke="black" stroke-linecap="round" stroke-width="1.728"/>
 </g>
 <g partID="854204810">
  <line y1="55.0785" y2="60.7402" x1="75.3898" x2="69.5229" stroke="black" stroke-linecap="round" stroke-width="1.728"/>
 </g>
 <g partID="854201140">
  <line y1="55.0069" y2="55.0785" x1="87.6809" x2="75.3898" stroke="black" stroke-linecap="round" stroke-width="1.728"/>
 </g>
 <g partID="854198780">
  <line y1="76.4528" y2="76.5762" x1="75.3898" x2="87.6809" stroke="black" stroke-linecap="round" stroke-width="1.728"/>
 </g>
 <g partID="854198790">
  <line y1="82.3169" y2="76.4528" x1="69.5" x2="75.3898" stroke="black" stroke-linecap="round" stroke-width="1.728"/>
 </g>
 <g partID="854204610">
  <line y1="119.986" y2="47.7347" x1="60.8099" x2="60.8099" stroke="black" stroke-linecap="round" stroke-width="1.728"/>
 </g>
 <g partID="854215780">
  <line y1="47.7347" y2="28.3636" x1="46.2833" x2="46.4015" stroke="black" stroke-linecap="round" stroke-width="1.728"/>
 </g>
 <g partID="854215830">
  <line y1="47.7347" y2="47.7347" x1="60.8099" x2="46.2833" stroke="black" stroke-linecap="round" stroke-width="1.728"/>
 </g>
 <g partID="854204620">
  <line y1="119.851" y2="119.986" x1="65.9194" x2="60.8099" stroke="black" stroke-linecap="round" stroke-width="1.728"/>
 </g>
 <g partID="854197970">
  <line y1="119.796" y2="119.796" x1="26.9107" x2="30.1347" stroke="black" stroke-linecap="round" stroke-width="1.728"/>
 </g>
 <g partID="854203480">
  <line y1="90.8251" y2="90.9491" x1="125.509" x2="120.348" stroke="black" stroke-linecap="round" stroke-width="1.728"/>
 </g>
 <g partID="854203540">
  <line y1="148.683" y2="90.8251" x1="125.509" x2="125.509" stroke="black" stroke-linecap="round" stroke-width="1.728"/>
 </g>
 <g partID="854203690">
  <line y1="148.657" y2="148.683" x1="3.08567" x2="125.509" stroke="black" stroke-linecap="round" stroke-width="1.728"/>
 </g>
 <g partID="854203740">
  <line y1="26.327" y2="148.657" x1="3.08567" x2="3.08567" stroke="black" stroke-linecap="round" stroke-width="1.728"/>
 </g>
 <g partID="854203490">
  <line y1="26.2083" y2="26.327" x1="22.7187" x2="3.08567" stroke="black" stroke-linecap="round" stroke-width="1.728"/>
 </g>
 <g partID="854204690">
  <line y1="69.3956" y2="69.3957" x1="37.1547" x2="26.9107" stroke="black" stroke-linecap="round" stroke-width="1.728"/>
 </g>
 <g partID="854198900">
  <line y1="62.0804" y2="62.1799" x1="75.3898" x2="87.6809" stroke="black" stroke-linecap="round" stroke-width="1.728"/>
 </g>
 <g partID="854198910">
  <line y1="67.9196" y2="62.0804" x1="69.5028" x2="75.3898" stroke="black" stroke-linecap="round" stroke-width="1.728"/>
 </g>
 <g partID="854203590">
  <line y1="4.42815" y2="16.8996" x1="24.9048" x2="24.8277" stroke="black" stroke-linecap="round" stroke-width="1.728"/>
 </g>
 <g partID="854203400">
  <line y1="4.42815" y2="4.42815" x1="132.755" x2="24.9048" stroke="black" stroke-linecap="round" stroke-width="1.728"/>
 </g>
 <g partID="854203410">
  <line y1="45.7356" y2="4.42815" x1="132.812" x2="132.755" stroke="black" stroke-linecap="round" stroke-width="1.728"/>
 </g>
 <g partID="854202870">
  <line y1="26.2372" y2="26.3338" x1="73.0471" x2="68.0193" stroke="black" stroke-linecap="round" stroke-width="1.728"/>
 </g>
 <g partID="854202860">
  <line y1="26.3338" y2="28.2904" x1="68.0193" x2="68.0848" stroke="black" stroke-linecap="round" stroke-width="1.728"/>
 </g>
 <g partID="854201360">
  <line y1="69.4509" y2="69.4103" x1="111.136" x2="116.481" stroke="black" stroke-linecap="round" stroke-width="1.728"/>
 </g>
 <g partID="854201200">
  <line y1="141.313" y2="69.4509" x1="111.136" x2="111.136" stroke="black" stroke-linecap="round" stroke-width="1.728"/>
 </g>
 <g partID="854201240">
  <line y1="141.393" y2="141.313" x1="10.349" x2="111.136" stroke="black" stroke-linecap="round" stroke-width="1.728"/>
 </g>
 <g partID="854201270">
  <line y1="54.998" y2="141.393" x1="10.349" x2="10.349" stroke="black" stroke-linecap="round" stroke-width="1.728"/>
 </g>
 <g partID="854201210">
  <line y1="54.996" y2="54.998" x1="22.7187" x2="10.349" stroke="black" stroke-linecap="round" stroke-width="1.728"/>
 </g>
 <g partID="854205080">
  <line y1="90.8251" y2="119.938" x1="82.3917" x2="82.3917" stroke="black" stroke-linecap="round" stroke-width="1.728"/>
 </g>
 <g partID="854205050">
  <line y1="119.938" y2="119.837" x1="82.3917" x2="77.2743" stroke="black" stroke-linecap="round" stroke-width="1.728"/>
 </g>
 <g partID="854197760">
  <line y1="90.95" y2="90.8251" x1="87.6814" x2="82.3917" stroke="black" stroke-linecap="round" stroke-width="1.728"/>
 </g>
 <g partID="854204550">
  <line y1="26.1956" y2="26.1956" x1="65.9187" x2="62.9827" stroke="black" stroke-linecap="round" stroke-width="1.728"/>
 </g>
 <g partID="854198840">
  <line y1="69.4509" y2="69.4031" x1="75.3898" x2="87.6808" stroke="black" stroke-linecap="round" stroke-width="1.728"/>
 </g>
 <g partID="854198850">
  <line y1="75.1373" y2="69.4509" x1="69.5201" x2="75.3898" stroke="black" stroke-linecap="round" stroke-width="1.728"/>
 </g>
 <g partID="854197940">
  <line y1="112.596" y2="112.596" x1="30.1347" x2="26.9107" stroke="black" stroke-linecap="round" stroke-width="1.728"/>
 </g>
 <g partID="854204460">
  <line y1="28.3636" y2="40.7061" x1="53.6195" x2="53.6469" stroke="black" stroke-linecap="round" stroke-width="1.728"/>
 </g>
 <g partID="854204450">
  <line y1="40.7061" y2="40.6117" x1="53.6469" x2="65.9187" stroke="black" stroke-linecap="round" stroke-width="1.728"/>
 </g>
 <g partID="854193910">
  <line y1="126.94" y2="55.0785" x1="96.764" x2="96.764" stroke="black" stroke-linecap="round" stroke-width="1.728"/>
 </g>
 <g partID="854193940">
  <line y1="55.0785" y2="55.003" x1="96.764" x2="116.481" stroke="black" stroke-linecap="round" stroke-width="1.728"/>
 </g>
 <g partID="854193870">
  <line y1="126.987" y2="126.94" x1="39.2819" x2="96.764" stroke="black" stroke-linecap="round" stroke-width="1.728"/>
 </g>
 <g partID="854193880">
  <line y1="100.256" y2="126.987" x1="39.2195" x2="39.2819" stroke="black" stroke-linecap="round" stroke-width="1.728"/>
 </g>
 <g partID="854202810">
  <line y1="18.9956" y2="18.9956" x1="73.0467" x2="70.1107" stroke="black" stroke-linecap="round" stroke-width="1.728"/>
 </g>
</svg>
